<svg xmlns="http://www.w3.org/2000/svg" xmlns:xlink="http://www.w3.org/1999/xlink" width="512" zoomAndPan="magnify" viewBox="0 0 384 383.999986" height="512" preserveAspectRatio="xMidYMid meet" version="1.0"><defs><g/></defs><g fill="#cccccc" fill-opacity="1"><g transform="translate(39.788232, 270.182483)"><g><path d="M 10.578125 69.34375 L 67.53125 69.34375 C 70.8125 69.34375 73.734375 66.4375 73.734375 63.140625 L 73.734375 40.875 C 73.734375 37.59375 76.65625 34.671875 79.9375 34.671875 L 102.203125 34.671875 C 105.484375 34.671875 108.40625 31.75 108.40625 28.46875 L 108.40625 -167.53125 C 108.40625 -170.8125 105.484375 -173.734375 102.203125 -173.734375 L 79.9375 -173.734375 C 76.65625 -173.734375 73.734375 -170.8125 73.734375 -167.53125 L 73.734375 28.46875 C 73.734375 31.75 70.8125 34.671875 67.53125 34.671875 L 10.578125 34.671875 C 7.296875 34.671875 4.375 37.59375 4.375 40.875 L 4.375 63.140625 C 4.375 66.4375 7.296875 69.34375 10.578125 69.34375 Z M 79.9375 -208.421875 L 102.203125 -208.421875 C 105.484375 -208.421875 108.40625 -211.328125 108.40625 -214.625 L 108.40625 -237.25 C 108.40625 -240.53125 105.484375 -243.453125 102.203125 -243.453125 L 79.9375 -243.453125 C 76.65625 -243.453125 73.734375 -240.53125 73.734375 -237.25 L 73.734375 -214.625 C 73.734375 -211.328125 76.65625 -208.421875 79.9375 -208.421875 Z M 79.9375 -208.421875 "/></g></g></g><g fill="#cccccc" fill-opacity="1"><g transform="translate(152.936474, 270.182483)"><g><path d="M 143.4375 63.140625 L 143.4375 -132.859375 C 143.4375 -136.140625 140.53125 -139.0625 137.234375 -139.0625 L 114.96875 -139.0625 C 111.6875 -139.0625 108.765625 -141.984375 108.765625 -145.265625 L 108.765625 -167.53125 C 108.765625 -170.8125 105.84375 -173.734375 102.5625 -173.734375 L 45.265625 -173.734375 C 41.96875 -173.734375 39.0625 -170.8125 39.0625 -167.53125 L 39.0625 -145.265625 C 39.0625 -141.984375 36.140625 -139.0625 32.84375 -139.0625 L 10.578125 -139.0625 C 7.296875 -139.0625 4.375 -136.140625 4.375 -132.859375 L 4.375 -40.875 C 4.375 -37.59375 7.296875 -34.671875 10.578125 -34.671875 L 32.84375 -34.671875 C 36.140625 -34.671875 39.0625 -31.75 39.0625 -28.46875 L 39.0625 -6.203125 C 39.0625 -2.921875 41.96875 0 45.265625 0 L 102.5625 0 C 105.84375 0 108.765625 2.921875 108.765625 6.203125 L 108.765625 63.140625 C 108.765625 66.4375 111.6875 69.34375 114.96875 69.34375 L 137.234375 69.34375 C 140.53125 69.34375 143.4375 66.4375 143.4375 63.140625 Z M 102.5625 -34.671875 L 45.265625 -34.671875 C 41.96875 -34.671875 39.0625 -37.59375 39.0625 -40.875 L 39.0625 -132.859375 C 39.0625 -136.140625 41.96875 -139.0625 45.265625 -139.0625 L 102.5625 -139.0625 C 105.84375 -139.0625 108.765625 -136.140625 108.765625 -132.859375 L 108.765625 -40.875 C 108.765625 -37.59375 105.84375 -34.671875 102.5625 -34.671875 Z M 102.5625 -34.671875 "/></g></g></g><g fill="#cccccc" fill-opacity="1"><g transform="translate(300.759167, 270.182483)"><g><path d="M 10.578125 0 L 32.84375 0 C 36.140625 0 39.0625 -2.921875 39.0625 -6.203125 L 39.0625 -28.46875 C 39.0625 -31.75 36.140625 -34.671875 32.84375 -34.671875 L 10.578125 -34.671875 C 7.296875 -34.671875 4.375 -31.75 4.375 -28.46875 L 4.375 -6.203125 C 4.375 -2.921875 7.296875 0 10.578125 0 Z M 10.578125 0 "/></g></g></g></svg>